<?xml version="1.0"?><svg xmlns="http://www.w3.org/2000/svg" width="477.10425" height="161.28101"><g transform="matrix(0.2433344,0,0,0.2433344,-178.60131,-8.4741361)" style="fill:#d4a10f"><path d="m 909.047,695.331 c -19.933,-6.564 -38.849,-25.152 -52.241,-51.333 -3.098,-6.057 -5.633,-11.456 -5.633,-11.998 0,-1.538 9.333,-6.675 9.767,-5.376 0.205,0.614 2.845,5.072 5.867,9.908 22.677,36.285 53.72,40.274 68.431,8.792 4.126,-8.829 6.096,-16.975 8.465,-35 3.393,-25.816 8.63,-57.44 10.977,-66.283 6.576,-24.782 20.663,-44.344 55.936,-77.675 30.695,-29.005 45.487,-51.574 47.217,-72.043 0.349,-4.124 0.304,-7.499 -0.098,-7.499 -0.403,0 -3.731,2.64 -7.397,5.867 -3.666,3.227 -12.228,10.031 -19.028,15.119 -17.42,13.037 -24.958,19.758 -30.113,26.853 -2.462,3.388 -4.8,6.16 -5.197,6.16 -0.397,0 -2.631,-5.737 -4.965,-12.75 -3.342,-10.039 -4.25,-14.238 -4.273,-19.75 -0.035,-8.27 1.437,-11.558 9.847,-22 10.92,-13.559 16.524,-28.64 16.535,-44.5 0.012,-16.879 -7.405,-31.585 -29.059,-57.613 -9.648,-11.597 -37.598,-41.387 -38.831,-41.387 -0.405,0 -0.622,6.638 -0.483,14.75 0.579,33.703 -5.893,59.43 -24.258,96.426 -11.726,23.622 -14.195,29.317 -18.878,43.535 -4.937,14.991 -6.492,23.246 -7.15,37.967 l -0.59,13.178 -4.34,4.259 c -2.387,2.343 -4.598,4.001 -4.913,3.686 -1.391,-1.391 -2.624,-21.51 -2.101,-34.302 0.962,-23.551 6.522,-44.632 20.178,-76.5 25.843,-60.312 32.548,-82.71 31.162,-104.105 -0.574,-8.864 -1.373,-11.63 -10.226,-35.395 -7.548,-20.263 -5.415,-40.044 6.303,-58.478 2.972,-4.675 3.329,-5.848 2.439,-8 -0.574,-1.387 -2.865,-6.648 -5.091,-11.691 -6.833,-15.477 -8.528,-23.543 -8.581,-40.832 -0.049,-16.037 1.148,-22.787 5.877,-33.12 4.102,-8.965 15.5,-19.38 21.209,-19.38 4.042,0 3.431,1.709 -2.106,5.889 -11.773,8.889 -15.985,24.318 -11.958,43.811 4.179,20.234 12.498,34.551 40.058,68.948 65.106,81.256 97.852,128.909 123.529,179.763 16.33,32.342 22.915,49.252 29.693,76.25 6.977,27.788 9.208,50.842 7.195,74.339 -4.38,51.118 -24.867,86.776 -60.049,104.515 -24.179,12.191 -55.902,14.245 -84.342,5.461 -10.302,-3.182 -9.981,-2.472 -7.578,-16.787 2.385,-14.207 4.101,-19.752 6.044,-19.537 0.756,0.084 5.65,0.923 10.875,1.866 23.116,4.171 48.066,-0.983 67,-13.84 6.115,-4.153 17.272,-14.94 22.657,-21.908 9.246,-11.963 16.616,-27.788 20.944,-44.974 3.189,-12.663 4.401,-38.514 2.435,-51.958 -1.508,-10.316 -6.771,-27.863 -12.697,-42.338 -20.769,-50.728 -56.966,-105.071 -135.214,-203 -3.516,-4.4 -9.992,-12.838 -14.391,-18.75 -4.399,-5.912 -8.329,-10.75 -8.734,-10.75 -1.346,0 -5.87,7.725 -7.573,12.932 -1.208,3.693 -1.555,7.314 -1.232,12.877 0.866,14.962 7.167,24.298 38.745,57.406 19.267,20.2 30.162,33.344 39.773,47.983 17.863,27.207 24.312,54.425 18.238,76.981 -0.596,2.213 -0.889,4.218 -0.65,4.457 1.35,1.35 20.604,-16.117 26.402,-23.951 1.969,-2.661 3.946,-4.434 4.418,-3.963 1.212,1.212 7.493,26.606 9.826,39.727 3.245,18.249 4.365,31.301 3.746,43.667 -0.665,13.284 -2.502,19.804 -9.267,32.885 -6.897,13.338 -16.045,24.532 -42.553,52.072 -26.214,27.235 -35.46,38.534 -38.769,47.379 -3.301,8.823 -7.248,30.769 -9.541,53.05 -3.367,32.723 -6.579,55.409 -9.002,63.593 -3.616,12.211 -9.997,20.519 -19.259,25.079 -5.882,2.896 -7.745,3.304 -16.224,3.558 -8.045,0.241 -10.8,-0.115 -17.205,-2.224 z" /><path d="m 1009.444,653.73 c -7.572,-3.748 -13.042,-11.955 -18.802,-28.207 -2.02,-5.699 -2.467,-8.1 -1.659,-8.908 1.727,-1.727 3.658,0.495 6.06,6.976 3.013,8.128 6.254,13.446 9.203,15.101 2.188,1.228 2.952,1.231 5.485,0.023 2.366,-1.129 3.004,-2.138 3.253,-5.147 0.585,-7.059 4.466,-3.381 7.586,7.189 2.194,7.434 2.048,8.777 -1.32,12.145 -3.483,3.483 -4.303,3.552 -9.806,0.828 z" /><path d="m 867.61,202.013 c 0,10.886 9.016,20.125 20.125,20.125 4.988,0 9.545,-1.835 13.062,-4.844 l 2.625,-1.875 -0.406,6.969 c -0.517,9.156 -3.956,16.149 -12.469,25.344 -9.199,9.935 -18.159,16.375 -47.375,34.031 -39.915,24.122 -53.471,33.614 -67.844,47.5 -18.471,17.845 -31.356,39.469 -37,62.125 -7.708,30.938 -5.237,60.681 7.844,94.938 3.74,9.795 3.81,10.348 4.375,27 1.5,44.248 12.602,74.693 35.562,97.531 11.663,11.601 22.329,17.124 36.25,18.844 3.48,0.43 8.562,0.607 11.312,0.375 33.343,-2.815 47.916,-30.404 55.062,-104.25 0.932,-9.625 2.195,-18.931 2.812,-20.688 0.759,-2.156 7.343,-8.862 20.25,-20.656 20.31,-18.56 24.372,-23.837 24.375,-31.594 0.002,-4.79 -4.085,-33.388 -4.906,-34.312 -0.359,-0.404 -2.669,2.031 -5.125,5.406 -4.103,5.639 -17.194,18.361 -34.312,33.344 -11.223,9.823 -13.319,14.985 -17.125,42.062 -6.633,47.195 -15.055,72.073 -29.188,86.219 -13.055,13.067 -34.297,16.37 -51,7.906 -16.974,-8.601 -29.541,-34.39 -31.062,-63.688 l -0.594,-11.5 7.719,7.219 c 10.275,9.596 18.63,13.779 27.562,13.781 8.419,0.002 11.191,-0.818 15.562,-4.656 6.431,-5.647 9.469,-14.691 9.469,-28.25 0,-27.084 -14.535,-59.557 -30.406,-67.875 -6.403,-3.356 -14.934,-3.033 -21.062,0.781 -5.916,3.682 -11.755,11.762 -14.781,20.5 -1.24,3.582 -2.7,6.732 -3.25,7 -1.847,0.901 -3.592,-11.383 -3.625,-25.5 -0.024,-10.375 0.516,-16.637 2.062,-24.188 5.78,-28.222 16.94,-48.345 39,-70.344 14.923,-14.882 30.327,-26.609 64.844,-49.344 26.686,-17.577 38.086,-27.066 44.406,-36.938 2.788,-4.355 3.357,-4.811 3.625,-2.938 0.954,6.675 -7.106,27.348 -25.625,65.75 -15.175,31.468 -19.928,42.458 -27.562,63.562 -9.631,26.621 -15.6,50.377 -19.094,75.938 -2.237,16.364 -3.028,50.104 -1.656,71.594 1.221,19.134 5.452,49.108 7.156,50.812 0.685,0.685 2.086,-0.095 4.375,-2.438 l 3.406,-3.469 -1.812,-11 c -6.699,-40.556 -4.156,-83.856 7.531,-128.281 8.265,-31.417 18.178,-56.459 41.719,-105.219 20.738,-42.954 24.456,-57.476 23.469,-92 -0.819,-28.636 -4.619,-45.356 -12.25,-53.844 -4.17,-4.638 -8.585,-7.062 -14.406,-7.062 -14.149,0 -21.625,9.188 -21.625,20.094 z m -74.875,269.938 c 1.935,0.053 3.784,0.534 5.531,1.438 3.613,1.869 8.919,9.817 8.906,13.375 -0.005,1.405 -1.348,4.861 -2.969,7.688 -2.302,4.013 -4.096,5.711 -8.188,7.75 -6.954,3.465 -15.262,3.583 -22.344,0.281 -7.661,-3.572 -7.924,-4.232 -4.531,-11.406 5.642,-11.93 15.21,-19.355 23.594,-19.125 z" /><path d="M 936.08,561.205 C 923.387,549.021 910.733,531.199 901.558,512.583 l -3.816,-7.742 4.424,-4.508 c 2.433,-2.479 4.93,-4.508 5.549,-4.508 0.619,0 2.886,2.587 5.038,5.75 4.816,7.078 21.478,24.434 30.705,31.982 6.082,4.976 6.772,5.892 6.169,8.185 -0.374,1.42 -1.732,7.698 -3.018,13.951 -1.286,6.253 -2.569,11.599 -2.85,11.88 -0.281,0.281 -3.736,-2.585 -7.678,-6.369 z" /><path d="m 800.78,404.937 c -3.624,-3.783 -4.61,-8.593 -3.528,-17.213 0.621,-4.945 1.973,-9.107 4.549,-14.011 6.598,-12.555 27.372,-30.81 27.372,-24.053 0,0.394 -4.222,5.057 -9.383,10.362 -13.943,14.333 -18.514,24.851 -13.545,31.168 3.473,4.415 9.927,3.144 9.927,-1.954 0,-2.827 3.318,-6.95 4.838,-6.011 1.552,0.959 1.465,4.275 -0.264,10.022 -3.843,12.77 -13.51,18.429 -19.967,11.69 z" /><path d="m 939.225,391.075 c -2.54,-9.147 -1.765,-10.401 22.83,-36.926 10.11,-10.903 19.665,-21.569 21.233,-23.701 3.056,-4.156 3.195,-4.067 4.731,3.034 0.691,3.192 0.522,4.987 -0.723,7.726 -0.893,1.963 -9.948,12.642 -20.123,23.732 -10.175,11.09 -20.075,22.326 -22,24.968 -1.925,2.643 -3.816,4.83 -4.203,4.86 -0.387,0.03 -1.172,-1.632 -1.744,-3.695 z" /><path d="m 245.743,226.215 a 20.361,20.361 0 1 1 -40.721,0 20.361,20.361 0 1 1 40.721,0 z" transform="matrix(0.988417,0,0,0.988417,638.86211,12.681159)" /><rect width="28.673" height="33.146" x="1057.2612" y="-20.729368" transform="matrix(0.9002757,0.4353202,-0.4353202,0.9002757,0,0)" /><rect width="28.673" height="33.146" x="1157.0187" y="-8.835309" transform="matrix(0.9002757,0.4353202,-0.4353202,0.9002757,0,0)" /><rect width="28.673" height="33.546001" x="1063.067" y="-141.44328" transform="matrix(0.7740919,0.6330732,-0.6330732,0.7740919,0,0)" /><rect width="28.673" height="33.546001" x="1087.7754" y="-103.2723" transform="matrix(0.7740919,0.6330732,-0.6330732,0.7740919,0,0)" /></g><g transform="matrix(0.69165649,0,0,0.69165649,-351.76422,-440.27261)" style="fill:#00529C"><path d="m 688.392,758.2 -23.062,65.781 17.031,0 4,-11.781 22,0 3.312,11.781 18,0 -22.656,-65.781 -18.625,0 z m 9.031,19.25 6.219,19.5 -12.469,0 6.25,-19.5 z" /><path d="m 844.813,758.2 -23.062,65.781 17.031,0 4,-11.781 22,0 3.312,11.781 18,0 -22.656,-65.781 -18.625,0 z m 9.031,19.25 6.219,19.5 -12.469,0 6.25,-19.5 z" /><path d="m 1157.1,758.2 -23.062,65.781 17.031,0 4,-11.781 22,0 3.312,11.781 18,0 -22.656,-65.781 -18.625,0 z m 9.031,19.25 6.219,19.5 -12.469,0 6.25,-19.5 z" /><path d="m 741.199,823.827 37.42,0 0,-13.836 -21.068,0 0,-51.727 -16.194,0 -0.157,65.563 z" /><path d="m 959.585,758.264 0,66.035 44.18,0 0,-13.521 -28.143,0 0,-12.421 22.012,0 0,-13.364 -21.854,0 0,-12.892 25.942,0 0,-13.836 -42.136,0 z" /><path d="m 1018.388,758.264 0,66.035 44.18,0 0,-13.521 -28.143,0 0,-12.421 22.012,0 0,-13.364 -21.854,0 0,-12.892 25.942,0 0,-13.836 -42.136,0 z" /><path d="m 898.582,758.264 0,13.836 23.428,0 -24.372,35.533 0,16.666 46.696,0 0,-14.307 -24.527,0 23.898,-35.061 0,-16.666 -45.124,0 z" /><path d="m 794.458,758.104 16.627,0 0,67.615 c 0,0 1.085,10.421 -6.065,18.242 -9.928,10.861 -27.632,1.71 -27.632,1.71 l 3.769,-13.745 c 0,0 2.217,1.552 5.321,1.552 4.136,0 8.202,-4.534 8.202,-9.754 l -0.222,-65.62 z" /><path d="m 1077.204,758.263 0,65.719 16.5,0 0,-24.531 c 3.87,0 6.612,-0.433 8.312,1.594 2.006,2.391 9.906,22.906 9.906,22.906 l 17,0.031 -10.219,-26.094 c 0,0 -2.164,-5.312 -4.531,-5.312 2.53,-1.748 5.625,-4.281 5.625,-4.281 0,0 4.562,-2.787 4.562,-11.906 0,-9.119 -5.888,-18.125 -16.031,-18.125 l -31.125,0 z m 16.406,14.031 7.969,0 c 2.973,0 6,3.11 6,6.531 0,3.422 -2.846,6.437 -5.875,6.438 l -8.094,0 0,-12.969 z" /></g></svg>
